{
  "accessors": [
    {
      "bufferView": 2,
      "componentType": 5126,
      "count": 4349,
      "max": [
        2.7954652309417725,
        1.0891973972320557,
        2.8066530227661133
      ],
      "min": [
        -2.7960422039031982,
        -1.1557039022445679,
        -2.7732746601104736
      ],
      "type": "VEC3"
    },
    {
      "bufferView": 2,
      "byteOffset": 52188,
      "componentType": 5126,
      "count": 4349,
      "max": [
        0.9641507863998413,
        0.9999944567680359,
        0.9997473955154419
      ],
      "min": [
        -0.9664863348007202,
        -0.9999843239784241,
        -0.9996066093444824
      ],
      "type": "VEC3"
    },
    {
      "bufferView": 1,
      "componentType": 5126,
      "count": 4349,
      "max": [
        1.0,
        1.0
      ],
      "min": [
        0.0,
        0.0
      ],
      "type": "VEC2"
    },
    {
      "bufferView": 0,
      "componentType": 5125,
      "count": 18720,
      "type": "SCALAR"
    },
    {
      "bufferView": 2,
      "byteOffset": 104376,
      "componentType": 5126,
      "count": 1800,
      "max": [
        2.887660264968872,
        -0.8365200161933899,
        2.893760919570923
      ],
      "min": [
        -2.888026475906372,
        -1.1722952127456665,
        -2.8792917728424072
      ],
      "type": "VEC3"
    },
    {
      "bufferView": 2,
      "byteOffset": 125976,
      "componentType": 5126,
      "count": 1800,
      "max": [
        0.9994840025901794,
        0.999798059463501,
        0.9839425683021545
      ],
      "min": [
        -0.9983811378479004,
        -0.9999646544456482,
        -0.9999560117721558
      ],
      "type": "VEC3"
    },
    {
      "bufferView": 1,
      "byteOffset": 34792,
      "componentType": 5126,
      "count": 1800,
      "max": [
        1.0,
        1.0
      ],
      "min": [
        0.0,
        0.8954620361328125
      ],
      "type": "VEC2"
    },
    {
      "bufferView": 0,
      "byteOffset": 74880,
      "componentType": 5125,
      "count": 6720,
      "type": "SCALAR"
    },
    {
      "bufferView": 2,
      "byteOffset": 147576,
      "componentType": 5126,
      "count": 891,
      "max": [
        1.0617765188217163,
        -0.8669651746749878,
        1.0459825992584229
      ],
      "min": [
        -1.0706511735916138,
        -0.9844030737876892,
        -1.1329842805862427
      ],
      "type": "VEC3"
    },
    {
      "bufferView": 2,
      "byteOffset": 158268,
      "componentType": 5126,
      "count": 891,
      "max": [
        0.8918172121047974,
        0.9997853636741638,
        0.7296827435493469
      ],
      "min": [
        -0.9673050045967102,
        -0.9999977350234985,
        -0.9607425332069397
      ],
      "type": "VEC3"
    },
    {
      "bufferView": 1,
      "byteOffset": 49192,
      "componentType": 5126,
      "count": 891,
      "max": [
        0.7477414011955261,
        0.5423370599746704
      ],
      "min": [
        0.2522581219673157,
        0.5025497078895569
      ],
      "type": "VEC2"
    },
    {
      "bufferView": 0,
      "byteOffset": 101760,
      "componentType": 5125,
      "count": 4800,
      "type": "SCALAR"
    },
    {
      "bufferView": 2,
      "byteOffset": 168960,
      "componentType": 5126,
      "count": 80,
      "max": [
        0.5,
        0.4999995231628418,
        0.5
      ],
      "min": [
        -0.5,
        -0.5000004768371582,
        -0.5
      ],
      "type": "VEC3"
    },
    {
      "bufferView": 2,
      "byteOffset": 169920,
      "componentType": 5126,
      "count": 80,
      "max": [
        1.0,
        1.0,
        1.0
      ],
      "min": [
        -1.0,
        -1.0,
        -1.0
      ],
      "type": "VEC3"
    },
    {
      "bufferView": 1,
      "byteOffset": 56320,
      "componentType": 5126,
      "count": 80,
      "max": [
        0.8750000596046448,
        1.0
      ],
      "min": [
        0.125,
        0.0
      ],
      "type": "VEC2"
    },
    {
      "bufferView": 0,
      "byteOffset": 120960,
      "componentType": 5125,
      "count": 192,
      "type": "SCALAR"
    }
  ],
  "asset": {
    "extras": {
      "author": "kashifraza3003 (https://sketchfab.com/kashifraza3003)",
      "license": "CC-BY-4.0 (http://creativecommons.org/licenses/by/4.0/)",
      "source": "https://sketchfab.com/3d-models/witch-hat-0d7ac880dc6a462d9790d01f3da22c2f",
      "title": "Witch Hat"
    },
    "generator": "Sketchfab-12.67.0",
    "version": "2.0"
  },
  "bufferViews": [
    {
      "buffer": 0,
      "byteLength": 121728,
      "name": "floatBufferViews",
      "target": 34963
    },
    {
      "buffer": 0,
      "byteLength": 56960,
      "byteOffset": 121728,
      "byteStride": 8,
      "name": "floatBufferViews",
      "target": 34962
    },
    {
      "buffer": 0,
      "byteLength": 170880,
      "byteOffset": 178688,
      "byteStride": 12,
      "name": "floatBufferViews",
      "target": 34962
    }
  ],
  "buffers": [
    {
      "byteLength": 349568,
      "uri": "scene.bin"
    }
  ],
  "materials": [
    {
      "doubleSided": true,
      "name": "lambert1",
      "pbrMetallicRoughness": {
        "baseColorFactor": [
          0.036338938729495056,
          0.036554373931543704,
          0.03858753884586705,
          1.0
        ],
        "metallicFactor": 0.0,
        "roughnessFactor": 0.6
      }
    },
    {
      "doubleSided": true,
      "name": "witch_hat_mlambert3",
      "pbrMetallicRoughness": {
        "baseColorFactor": [
          0.24422686786515874,
          0.24186169650522307,
          0.24186169650522307,
          1.0
        ],
        "metallicFactor": 0.0,
        "roughnessFactor": 0.6
      }
    },
    {
      "doubleSided": true,
      "name": "witch_hat_mlambert2",
      "pbrMetallicRoughness": {
        "baseColorFactor": [
          0.0,
          0.23230971296395453,
          0.8,
          1.0
        ],
        "metallicFactor": 0.0,
        "roughnessFactor": 0.6
      }
    },
    {
      "doubleSided": true,
      "name": "witch_hat_mblinn1",
      "pbrMetallicRoughness": {
        "baseColorFactor": [
          0.672342304491479,
          0.672342304491479,
          0.7528143602603041,
          1.0
        ],
        "metallicFactor": 0.0,
        "roughnessFactor": 0.6
      }
    }
  ],
  "meshes": [
    {
      "name": "witch_hat_m:pCone1_lambert1_0",
      "primitives": [
        {
          "attributes": {
            "NORMAL": 1,
            "POSITION": 0,
            "TEXCOORD_0": 2
          },
          "indices": 3,
          "material": 0,
          "mode": 4
        }
      ]
    },
    {
      "name": "witch_hat_m:pCone1_witch_hat_m:lambert3_0",
      "primitives": [
        {
          "attributes": {
            "NORMAL": 5,
            "POSITION": 4,
            "TEXCOORD_0": 6
          },
          "indices": 7,
          "material": 1,
          "mode": 4
        }
      ]
    },
    {
      "name": "witch_hat_m:pCone1_witch_hat_m:lambert2_0",
      "primitives": [
        {
          "attributes": {
            "NORMAL": 9,
            "POSITION": 8,
            "TEXCOORD_0": 10
          },
          "indices": 11,
          "material": 2,
          "mode": 4
        }
      ]
    },
    {
      "name": "witch_hat_m:pCube1_witch_hat_m:blinn1_0",
      "primitives": [
        {
          "attributes": {
            "NORMAL": 13,
            "POSITION": 12,
            "TEXCOORD_0": 14
          },
          "indices": 15,
          "material": 3,
          "mode": 4
        }
      ]
    }
  ],
  "nodes": [
    {
      "children": [
        1
      ],
      "matrix": [
        1.0,
        0.0,
        0.0,
        0.0,
        0.0,
        2.220446049250313e-16,
        -1.0,
        0.0,
        0.0,
        1.0,
        2.220446049250313e-16,
        0.0,
        0.0,
        0.0,
        0.0,
        1.0
      ],
      "name": "Sketchfab_model"
    },
    {
      "children": [
        2
      ],
      "matrix": [
        1.0,
        0.0,
        0.0,
        0.0,
        0.0,
        0.0,
        1.0,
        0.0,
        0.0,
        -1.0,
        0.0,
        0.0,
        0.0,
        0.0,
        0.0,
        1.0
      ],
      "name": "36541e41dc394953877bbf5eb41a1fa7.fbx"
    },
    {
      "children": [
        3,
        7
      ],
      "name": "RootNode"
    },
    {
      "children": [
        4,
        5,
        6
      ],
      "matrix": [
        1.0,
        0.0,
        0.0,
        0.0,
        0.0,
        1.9991974830627441,
        0.0,
        0.0,
        0.0,
        0.0,
        1.0,
        0.0,
        0.0,
        2.006098747253418,
        0.0,
        1.0
      ],
      "name": "witch_hat_m:pCone1"
    },
    {
      "mesh": 0,
      "name": "witch_hat_m:pCone1_lambert1_0"
    },
    {
      "mesh": 1,
      "name": "witch_hat_m:pCone1_witch_hat_m:lambert3_0"
    },
    {
      "mesh": 2,
      "name": "witch_hat_m:pCone1_witch_hat_m:lambert2_0"
    },
    {
      "children": [
        8
      ],
      "matrix": [
        0.039012873594592455,
        0.017547208950388096,
        0.004092685918446589,
        0.0,
        -0.07201540955320437,
        0.16184093574957154,
        -0.007410450536993416,
        0.0,
        -0.0295140878831297,
        -0.00020982806712674013,
        0.28223794833007665,
        0.0,
        1.0127027034759521,
        0.181288942694664,
        0.06585527211427689,
        1.0
      ],
      "name": "witch_hat_m:pCube1"
    },
    {
      "mesh": 3,
      "name": "witch_hat_m:pCube1_witch_hat_m:blinn1_0"
    }
  ],
  "scene": 0,
  "scenes": [
    {
      "name": "Sketchfab_Scene",
      "nodes": [
        0
      ]
    }
  ]
}
