{
  "accessors": [
    {
      "bufferView": 2,
      "componentType": 5126,
      "count": 38399,
      "max": [
        1.3626327514648438,
        1.3824621438980103,
        1.7915935516357422
      ],
      "min": [
        -1.3626329898834229,
        -1.3627287149429321,
        -1.1149770021438599
      ],
      "type": "VEC3"
    },
    {
      "bufferView": 2,
      "byteOffset": 460788,
      "componentType": 5126,
      "count": 38399,
      "max": [
        0.9998903274536133,
        1.0,
        1.0
      ],
      "min": [
        -1.0,
        -1.0,
        -1.0
      ],
      "type": "VEC3"
    },
    {
      "bufferView": 1,
      "componentType": 5126,
      "count": 38399,
      "max": [
        1.000000238418579,
        1.000000238418579
      ],
      "min": [
        0.0,
        0.0
      ],
      "type": "VEC2"
    },
    {
      "bufferView": 0,
      "componentType": 5125,
      "count": 207966,
      "type": "SCALAR"
    },
    {
      "bufferView": 2,
      "byteOffset": 921576,
      "componentType": 5126,
      "count": 38083,
      "max": [
        1.3626327514648438,
        1.3824621438980103,
        1.7915935516357422
      ],
      "min": [
        -1.3626329898834229,
        -1.3627287149429321,
        -1.1149770021438599
      ],
      "type": "VEC3"
    },
    {
      "bufferView": 2,
      "byteOffset": 1378572,
      "componentType": 5126,
      "count": 38083,
      "max": [
        0.9994996786117554,
        0.9997503757476807,
        1.0
      ],
      "min": [
        -1.0,
        -0.9996939897537231,
        -1.0
      ],
      "type": "VEC3"
    },
    {
      "bufferView": 1,
      "byteOffset": 307192,
      "componentType": 5126,
      "count": 38083,
      "max": [
        1.0000001192092896,
        1.000000238418579
      ],
      "min": [
        0.0,
        0.010000006295740604
      ],
      "type": "VEC2"
    },
    {
      "bufferView": 0,
      "byteOffset": 831864,
      "componentType": 5125,
      "count": 205974,
      "type": "SCALAR"
    }
  ],
  "asset": {
    "extras": {
      "author": "Akshat (https://sketchfab.com/shooter24994)",
      "license": "CC-BY-4.0 (http://creativecommons.org/licenses/by/4.0/)",
      "source": "https://sketchfab.com/3d-models/scary-halloween-ghost-83e1b918dbda4a78a14b0278ab38a089",
      "title": "Scary Halloween Ghost"
    },
    "generator": "Sketchfab-12.65.0",
    "version": "2.0"
  },
  "bufferViews": [
    {
      "buffer": 0,
      "byteLength": 1655760,
      "name": "floatBufferViews",
      "target": 34963
    },
    {
      "buffer": 0,
      "byteLength": 611856,
      "byteOffset": 1655760,
      "byteStride": 8,
      "name": "floatBufferViews",
      "target": 34962
    },
    {
      "buffer": 0,
      "byteLength": 1835568,
      "byteOffset": 2267616,
      "byteStride": 12,
      "name": "floatBufferViews",
      "target": 34962
    }
  ],
  "buffers": [
    {
      "byteLength": 4103184,
      "uri": "scene.bin"
    }
  ],
  "materials": [
    {
      "doubleSided": true,
      "name": "Material",
      "pbrMetallicRoughness": {
        "metallicFactor": 0.0
      }
    },
    {
      "doubleSided": true,
      "name": "Material.002",
      "pbrMetallicRoughness": {
        "baseColorFactor": [
          0.0,
          0.0,
          0.0,
          1.0
        ]
      }
    }
  ],
  "meshes": [
    {
      "name": "Cylinder_Material_0",
      "primitives": [
        {
          "attributes": {
            "NORMAL": 1,
            "POSITION": 0,
            "TEXCOORD_0": 2
          },
          "indices": 3,
          "material": 0,
          "mode": 4
        }
      ]
    },
    {
      "name": "Cylinder.002_Material.002_0",
      "primitives": [
        {
          "attributes": {
            "NORMAL": 5,
            "POSITION": 4,
            "TEXCOORD_0": 6
          },
          "indices": 7,
          "material": 1,
          "mode": 4
        }
      ]
    }
  ],
  "nodes": [
    {
      "children": [
        1
      ],
      "matrix": [
        1.0,
        0.0,
        0.0,
        0.0,
        0.0,
        2.220446049250313e-16,
        -1.0,
        0.0,
        0.0,
        1.0,
        2.220446049250313e-16,
        0.0,
        0.0,
        0.0,
        0.0,
        1.0
      ],
      "name": "Sketchfab_model"
    },
    {
      "children": [
        2
      ],
      "matrix": [
        1.0,
        0.0,
        0.0,
        0.0,
        0.0,
        0.0,
        1.0,
        0.0,
        0.0,
        -1.0,
        0.0,
        0.0,
        0.0,
        0.0,
        0.0,
        1.0
      ],
      "name": "61c1c55112ff43d8b3b13ba13c17e092.fbx"
    },
    {
      "children": [
        3,
        5
      ],
      "name": "RootNode"
    },
    {
      "children": [
        4
      ],
      "matrix": [
        100.0,
        0.0,
        0.0,
        0.0,
        0.0,
        -1.629206793918314e-05,
        -99.99999999999868,
        0.0,
        0.0,
        99.99999999999868,
        -1.629206793918314e-05,
        0.0,
        0.0,
        0.0,
        0.0,
        1.0
      ],
      "name": "Cylinder"
    },
    {
      "mesh": 0,
      "name": "Cylinder_Material_0"
    },
    {
      "children": [
        6
      ],
      "matrix": [
        87.31348419189453,
        0.0,
        0.0,
        0.0,
        0.0,
        -1.422517216461139e-05,
        -87.31348419189338,
        0.0,
        0.0,
        87.31348419189338,
        -1.422517216461139e-05,
        0.0,
        6.699542045593262,
        13.030282020568848,
        0.817857563495636,
        1.0
      ],
      "name": "Cylinder.002"
    },
    {
      "mesh": 1,
      "name": "Cylinder.002_Material.002_0"
    }
  ],
  "scene": 0,
  "scenes": [
    {
      "name": "Sketchfab_Scene",
      "nodes": [
        0
      ]
    }
  ]
}
